<?xml version="1.0" encoding="UTF-8" standalone="no"?>
<svg
   xmlns:dc="http://purl.org/dc/elements/1.1/"
   xmlns:cc="http://creativecommons.org/ns#"
   xmlns:rdf="http://www.w3.org/1999/02/22-rdf-syntax-ns#"
   xmlns:svg="http://www.w3.org/2000/svg"
   xmlns="http://www.w3.org/2000/svg"
   xmlns:sodipodi="http://sodipodi.sourceforge.net/DTD/sodipodi-0.dtd"
   xmlns:inkscape="http://www.inkscape.org/namespaces/inkscape"
   width="250pt"
   height="110pt"
   viewBox="0 0 250 110"
   version="1.1"
   id="svg2"
   inkscape:version="0.48.3.1 r9886"
   sodipodi:docname="ist_id_logo.svg">
  <metadata
     id="metadata210">
    <rdf:RDF>
      <cc:Work
         rdf:about="">
        <dc:format>image/svg+xml</dc:format>
        <dc:type
           rdf:resource="http://purl.org/dc/dcmitype/StillImage" />
        <dc:title />
      </cc:Work>
    </rdf:RDF>
  </metadata>
  <defs
     id="defs208" />
  <sodipodi:namedview
     pagecolor="#ffffff"
     bordercolor="#666666"
     borderopacity="1"
     objecttolerance="10"
     gridtolerance="10"
     guidetolerance="10"
     inkscape:pageopacity="0"
     inkscape:pageshadow="2"
     inkscape:window-width="1180"
     inkscape:window-height="726"
     id="namedview206"
     showgrid="false"
     inkscape:zoom="1.792"
     inkscape:cx="143.70489"
     inkscape:cy="56.268485"
     inkscape:window-x="641"
     inkscape:window-y="370"
     inkscape:window-maximized="0"
     inkscape:current-layer="svg2" />
  <g
     id="g2992">
    <path
       id="path4"
       d="M 0,0 250,0 250,110 0,110 0,0 z"
       inkscape:connector-curvature="0"
       style="fill:#ffffff" />
    <path
       id="path6"
       d="m 39.23,25.23 c 3.14,-3.91 9,-5.05 13.52,-3.07 2.44,1.02 3.99,3.26 5.58,5.26 -1.46,0.87 -2.92,1.74 -4.38,2.61 -1.58,-1.73 -3.31,-3.87 -5.95,-3.56 -3.43,-0.31 -7.01,3.89 -4.42,6.9 3.57,3.16 8.82,3.51 12.36,6.78 5.16,4.51 4.1,13.65 -1.41,17.44 -4.64,3.32 -11.77,2.89 -15.71,-1.34 -1.95,-2 -2.57,-4.83 -3.39,-7.4 1.84,-0.39 3.69,-0.79 5.54,-1.18 0.84,2.72 1.75,6.27 5.14,6.7 5.11,1.62 9.79,-4.81 6.79,-9.19 C 49.55,41.06 43.34,41.12 39.77,37.21 36.51,34.15 36.43,28.6 39.23,25.23 z"
       inkscape:connector-curvature="0"
       style="fill:#98504a" />
    <path
       id="path8"
       d="M 22.45,58.93 C 22.6,46.52 22.39,34.1 22.56,21.69 c 1.81,0.03 3.63,0.06 5.44,0.09 0,12.42 0,24.83 0,37.25 -1.85,-0.03 -3.7,-0.06 -5.55,-0.1 z"
       inkscape:connector-curvature="0"
       style="fill:#98504a" />
    <path
       id="path10"
       d="m 62.75,21.75 c 7.5,0 15,0 22.5,0 0,1.75 0,3.5 0,5.25 -2.83,0 -5.66,0 -8.5,0 0.01,10.66 -0.02,21.32 0.02,31.97 -1.84,0.02 -3.69,0.02 -5.53,0.03 0.01,-10.66 0.01,-21.33 0,-32 -2.83,0 -5.66,0 -8.49,0 0,-1.75 0,-3.5 0,-5.25 z"
       inkscape:connector-curvature="0"
       style="fill:#98504a" />
    <path
       id="path12"
       d="m 101.47,58.95 c 0.08,-12.41 -0.03,-24.81 0.06,-37.22 1.82,0.01 3.64,0.02 5.47,0.03 0,12.42 0,24.84 0,37.26 -1.85,-0.02 -3.69,-0.04 -5.53,-0.07 z"
       inkscape:connector-curvature="0"
       style="fill:#98504a" />
    <path
       id="path14"
       d="m 116.45,58.94 c 0.14,-12.41 -0.06,-24.82 0.11,-37.22 7.09,0.2 15.07,-1.01 21.16,3.51 9.59,6.74 9.81,22.88 0.38,29.86 -6.06,5 -14.37,3.84 -21.65,3.85 z"
       inkscape:connector-curvature="0"
       style="fill:#98504a" />
    <path
       id="path16"
       d="m 122,26.91 c 4.24,0.11 8.9,0.04 12.45,2.74 6.92,4.96 6.74,16.77 -0.26,21.58 -3.48,2.64 -8.02,2.49 -12.15,2.62 -0.09,-8.98 -0.02,-17.96 -0.04,-26.94 z"
       inkscape:connector-curvature="0"
       style="fill:#ffffff" />
    <path
       id="path18"
       d="m 86,44.75 c 3.58,0 7.16,0 10.74,0 0.01,1.58 0.01,3.17 0.01,4.75 -3.58,0 -7.17,0 -10.75,0 0,-1.58 0,-3.17 0,-4.75 z"
       inkscape:connector-curvature="0"
       style="fill:#98504a" />
    <text
       sodipodi:linespacing="125%"
       id="text3187"
       y="75.742439"
       x="22.880405"
       style="font-size:9.95999813px;font-style:normal;font-weight:normal;line-height:125%;letter-spacing:0px;word-spacing:0px;fill:#000000;fill-opacity:1;stroke:none;font-family:Sans"
       xml:space="preserve"><tspan
         style="-inkscape-font-specification:TeXGyreAdventor;font-family:TeXGyreAdventor;font-weight:normal;font-style:normal;font-stretch:normal;font-variant:normal"
         y="75.742439"
         x="22.880405"
         id="tspan3189"
         sodipodi:role="line">Associação do Instituto Superior Técnico</tspan><tspan
         style="-inkscape-font-specification:TeXGyreAdventor;font-family:TeXGyreAdventor;font-weight:normal;font-style:normal;font-stretch:normal;font-variant:normal"
         id="tspan3191"
         y="88.192436"
         x="22.880405"
         sodipodi:role="line">para a Investigação e Desenvolvimento</tspan></text>
  </g>
</svg>
